<svg width="37" height="36" viewBox="0 0 37 36" fill="none" xmlns="http://www.w3.org/2000/svg">
<g clip-path="url(#clip0_17351_15583)">
<path d="M36.7857 21.8257C36.5514 20.7937 35.9347 19.7497 34.8864 18.6457C32.802 16.4497 29.8297 14.8297 26.919 14.3257C26.8697 14.3257 26.3517 14.2777 26.29 14.2777C26.1914 14.2777 25.883 14.2777 25.661 14.3017L25.994 13.9417C26.4257 13.4857 26.8204 12.9217 27.1657 12.2617C27.7207 11.2417 28.3497 9.62173 28.2634 7.71373V7.44973L28.5224 7.40173C28.6457 7.37773 28.7567 7.36573 28.88 7.32973C29.509 7.17373 30.0764 6.84973 30.5204 6.41773C31.026 5.92573 31.359 5.30173 31.4577 4.64173C31.5687 3.89773 31.3837 3.09373 30.9397 2.32573C30.508 1.56973 29.879 0.993727 29.176 0.705727C28.399 0.393727 27.6344 0.453727 27.141 0.561727C26.5614 0.693727 26.0064 0.945727 25.4637 1.30573C25.1554 1.52173 24.8717 1.77373 24.6127 2.09773L24.4647 2.27773L24.255 2.18173C22.7627 1.54573 20.9004 1.22173 18.6927 1.22173C16.485 1.22173 14.6227 1.54573 13.1427 2.18173L12.933 2.27773L12.785 2.09773C12.526 1.78573 12.2424 1.52173 11.934 1.30573C11.4037 0.933727 10.8364 0.681727 10.2567 0.561727C9.92368 0.489727 9.59068 0.465727 9.25768 0.477727C8.90002 0.501727 8.54235 0.573727 8.22168 0.705727C7.51868 0.993727 6.90202 1.54573 6.45802 2.32573C6.01402 3.09373 5.84135 3.89773 5.94002 4.64173C6.03868 5.30173 6.35935 5.92573 6.87735 6.41773C7.33368 6.84973 7.90102 7.16173 8.51768 7.32973C8.62868 7.35373 8.75202 7.37773 8.87535 7.40173L9.14668 7.44973V7.71373C9.03568 9.62173 9.67702 11.2417 10.232 12.2617C10.528 12.8017 10.8734 13.3057 11.2557 13.7617L11.4407 13.9777L11.231 14.1697C11.231 14.1697 11.194 14.2057 11.1694 14.2297C10.9474 14.2537 10.6267 14.3017 10.6144 14.3137C10.565 14.3137 10.5157 14.3137 10.4664 14.3137C7.55569 14.8177 4.57102 16.4377 2.49902 18.6337C1.46302 19.7377 0.846351 20.7697 0.612018 21.8137C0.353018 22.9897 0.760018 24.2017 1.66035 24.9097C2.49902 25.5817 3.53502 25.8577 4.49702 25.7017C5.18768 25.5817 5.82902 25.2697 6.50735 24.7297L6.93902 24.3817L7.02535 25.0537L6.92668 25.2097C5.79202 26.3737 5.13835 28.0057 5.13835 29.6737C5.13835 33.0937 7.72835 35.8657 10.898 35.8657C12.711 35.8657 14.376 34.9537 15.486 33.3697L15.6217 33.1777L15.856 33.2617C17.1264 33.7297 18.298 33.6097 18.4337 33.5977C18.6557 33.6097 20.0494 33.7657 21.4307 33.1297L21.6774 33.0217L21.8254 33.2497C22.923 34.9297 24.6374 35.8897 26.5244 35.8897C29.7064 35.8897 32.284 33.1177 32.284 29.6977C32.284 28.1137 31.7167 26.6017 30.6807 25.4257L29.2254 23.7817L31.0877 24.9817C31.692 25.3777 32.284 25.6177 32.8884 25.7137C33.8874 25.8817 34.9357 25.5937 35.7744 24.9337C36.6747 24.2257 37.0817 23.0017 36.8227 21.8377L36.7857 21.8257ZM26.142 2.92573C26.253 2.82973 26.3394 2.74573 26.438 2.67373C26.771 2.43373 27.1657 2.26573 27.511 2.18173C27.696 2.13373 27.8687 2.12173 28.0414 2.13373C28.214 2.13373 28.3744 2.18173 28.5347 2.24173C28.9047 2.38573 29.2007 2.67373 29.472 3.14173C29.7434 3.60973 29.842 4.01773 29.7927 4.41373C29.7434 4.72573 29.5954 5.00173 29.3487 5.25373C29.1144 5.48173 28.7814 5.66173 28.4607 5.74573C28.325 5.78173 28.2017 5.79373 28.103 5.79373H27.8934L27.807 5.60173C27.4494 4.73773 26.8944 3.98173 26.179 3.36973L25.92 3.15373L26.1667 2.92573H26.142ZM9.59068 5.60173L9.50435 5.79373H9.29468C9.18368 5.79373 9.07268 5.76973 8.92468 5.74573C8.60402 5.66173 8.27102 5.48173 8.03668 5.25373C7.77768 5.01373 7.64202 4.73773 7.59268 4.41373C7.53102 4.01773 7.64202 3.60973 7.91335 3.14173C8.18468 2.67373 8.48068 2.38573 8.85068 2.24173C9.01102 2.18173 9.17135 2.14573 9.34402 2.13373C9.50435 2.13373 9.68935 2.13373 9.87435 2.18173C10.2074 2.25373 10.602 2.43373 10.935 2.67373C11.046 2.74573 11.1324 2.82973 11.2187 2.90173L11.4654 3.12973L11.231 3.35773C10.5034 3.98173 9.96068 4.72573 9.60302 5.58973L9.59068 5.60173ZM10.8117 7.76173C10.898 6.35773 11.453 5.27773 12.526 4.44973C13.858 3.41773 15.93 2.90173 18.6804 2.90173C21.4307 2.90173 23.515 3.42973 24.847 4.44973C25.92 5.27773 26.4874 6.35773 26.5614 7.76173C26.623 8.94973 26.3024 10.3177 25.661 11.4937C25.513 11.7817 25.328 12.0577 25.0814 12.3577L24.7114 12.8377L24.5387 12.2617C24.292 11.4457 23.811 10.7257 23.145 10.1857C22.0474 9.30973 20.5057 8.85373 18.6804 8.84173C16.8427 8.84173 15.301 9.30973 14.2157 10.1857C13.5497 10.7257 13.0687 11.4337 12.822 12.2617L12.6494 12.8377L12.2794 12.3577C12.045 12.0577 11.86 11.7697 11.712 11.4937C11.083 10.3297 10.75 8.93773 10.8117 7.76173ZM18.0637 12.0217C18.2117 12.1897 18.4214 12.2737 18.6557 12.2857C19.1367 12.3097 19.519 11.9497 19.5314 11.4937V10.5457L19.9014 10.6057C20.7894 10.7497 21.5417 11.0497 22.0844 11.4817C22.7257 11.9977 23.0464 12.6217 23.034 13.3417C23.034 13.8457 22.849 14.5897 22.0104 15.2497C21.4554 15.6937 20.444 16.2217 18.7297 16.2457C16.9414 16.2217 15.9177 15.6937 15.3627 15.2497C14.5364 14.5897 14.339 13.8457 14.339 13.3417C14.339 12.6337 14.6597 11.9857 15.301 11.4817C15.8437 11.0497 16.6084 10.7497 17.4964 10.6057L17.8664 10.5457V11.4337C17.8417 11.6617 17.9157 11.8657 18.076 12.0337L18.0637 12.0217ZM5.57002 23.3377C5.08902 23.7457 4.59568 24.0097 4.16402 24.0937C4.05302 24.1177 3.94202 24.1297 3.81868 24.1297C3.47335 24.1297 3.14035 24.0217 2.68402 23.6617C2.11668 23.2177 2.07968 22.8337 2.22768 22.1977C2.38802 21.5017 2.94302 20.6017 3.70768 19.7857C4.87935 18.5377 6.65535 17.3617 8.45602 16.6537L9.33168 16.3057L8.83835 17.0857C7.92568 18.5257 7.32135 20.0257 7.03768 21.5377L7.00068 21.6337C6.76635 22.0177 6.26068 22.7377 5.55768 23.3497L5.57002 23.3377ZM10.8857 34.2457C8.64102 34.2457 6.81568 32.2057 6.81568 29.6977C6.81568 27.1897 8.64102 25.1617 10.8857 25.1617C13.1304 25.1617 14.9434 27.2017 14.9434 29.6977C14.9434 32.1937 13.118 34.2457 10.8857 34.2457ZM20.74 29.6977C20.74 30.2017 20.8017 30.7297 20.9374 31.2577L20.999 31.4977L20.7647 31.5937C19.963 31.9537 18.7544 31.9657 18.557 31.9657H18.5324C18.4584 31.9657 18.4214 31.9657 18.372 31.9657C18.3104 31.9657 17.41 31.9657 16.6207 31.7617L16.3247 31.6777L16.3987 31.3897C16.5467 30.8257 16.633 30.2377 16.633 29.6737C16.633 26.2657 14.0554 23.4817 10.8857 23.4817C10.2444 23.4817 9.61535 23.6017 8.99868 23.8297L8.57935 23.9857V23.5537C8.53002 18.9097 12.1684 15.5377 12.3164 15.4057C12.4027 15.3337 12.7234 14.9257 12.7234 14.9257L13.1427 15.1417L13.192 15.2257C13.488 15.7297 13.8457 16.1497 14.2774 16.4977C14.894 16.9897 15.6957 17.3617 16.6577 17.6017L17.1017 17.7097L14.524 21.0577C14.3637 21.2377 14.2774 21.4537 14.302 21.6697C14.3267 21.8857 14.413 22.0897 14.5857 22.2337C14.9434 22.5337 15.4737 22.4977 15.782 22.1617C15.8067 22.1257 15.8437 22.0897 15.856 22.0537L18.668 18.4057L21.4554 22.0297C21.591 22.2337 21.776 22.3537 21.998 22.4017C22.2324 22.4497 22.442 22.4017 22.6394 22.2817C22.8244 22.1617 22.96 21.9817 23.0094 21.7657C23.0587 21.5497 23.0094 21.3337 22.886 21.1417C22.8614 21.1057 22.8367 21.0817 22.812 21.0457L20.222 17.6857L20.666 17.5777C21.628 17.3377 22.4297 16.9657 23.0464 16.4737C23.4164 16.1737 23.737 15.8137 24.033 15.3457L24.255 15.0097L24.588 15.3697C24.7484 15.5257 28.3127 18.8257 28.3374 23.3977V23.8057L27.9427 23.6977C27.4494 23.5537 26.9437 23.4817 26.4627 23.4817C23.293 23.4817 20.703 26.2537 20.703 29.6737L20.74 29.6977ZM30.5574 29.6977C30.5574 32.2057 28.732 34.2457 26.4997 34.2457C24.2674 34.2457 22.442 32.2057 22.442 29.6977C22.442 27.1897 24.2674 25.1617 26.4997 25.1617C28.732 25.1617 30.5574 27.2017 30.5574 29.6977ZM34.6767 23.6497C34.2204 24.0097 33.875 24.1177 33.505 24.1177C33.3817 24.1177 33.2584 24.1057 33.135 24.0817C32.6664 23.9977 32.099 23.7337 31.5564 23.3017C30.7177 22.6537 30.138 21.8617 29.9284 21.5617L29.879 21.4537C29.583 19.8937 28.9294 18.3457 27.955 16.8577L27.474 16.1137L28.325 16.4137C30.3354 17.1097 32.321 18.3577 33.6407 19.7617C34.4177 20.5897 34.9727 21.4897 35.133 22.1737C35.281 22.8097 35.244 23.1937 34.6767 23.6377V23.6497Z" fill="#172851"/>
<path d="M22.0341 8.19389C22.8481 8.19389 23.5017 7.55789 23.5017 6.76589C23.5017 5.97389 22.8481 5.33789 22.0341 5.33789C21.2201 5.33789 20.5664 5.97389 20.5664 6.76589C20.5664 7.55789 21.2201 8.19389 22.0341 8.19389Z" fill="#172851"/>
<path d="M15.0927 8.19389C15.9067 8.19389 16.5603 7.55789 16.5603 6.76589C16.5603 5.97389 15.9067 5.33789 15.0927 5.33789C14.2787 5.33789 13.625 5.97389 13.625 6.76589C13.625 7.55789 14.2787 8.19389 15.0927 8.19389Z" fill="#172851"/>
<path d="M20.7393 29.6978C20.7393 30.2018 20.801 30.7298 20.9366 31.2578L20.9983 31.4978L20.764 31.5938C19.9623 31.9538 18.7536 31.9658 18.5563 31.9658H18.5316C18.4576 31.9658 18.4206 31.9658 18.3713 31.9658C18.3096 31.9658 17.4093 31.9658 16.62 31.7618L16.324 31.6778L16.398 31.3898C16.546 30.8258 16.6323 30.2378 16.6323 29.6738C16.6323 26.2658 14.0546 23.4818 10.885 23.4818C10.2436 23.4818 9.61462 23.6018 8.99796 23.8298L8.57862 23.9858V23.5538C8.52929 18.9098 12.1676 15.5378 12.3156 15.4058C12.402 15.3338 12.7226 14.9258 12.7226 14.9258L13.142 15.1418L13.1913 15.2258C13.4873 15.7298 13.845 16.1498 14.2766 16.4978C14.8933 16.9898 15.695 17.3618 16.657 17.6018L17.101 17.7098L14.5233 21.0578C14.363 21.2378 14.2766 21.4538 14.3013 21.6698C14.326 21.8858 14.4123 22.0898 14.585 22.2338C14.9426 22.5338 15.473 22.4978 15.7813 22.1618C15.806 22.1258 15.843 22.0898 15.8553 22.0538L18.6673 18.4058L21.4546 22.0298C21.5903 22.2338 21.7753 22.3538 21.9973 22.4018C22.2316 22.4498 22.4413 22.4018 22.6386 22.2818C22.8236 22.1618 22.9593 21.9818 23.0086 21.7658C23.058 21.5498 23.0086 21.3338 22.8853 21.1418C22.8606 21.1058 22.836 21.0818 22.8113 21.0458L20.2213 17.6858L20.6653 17.5778C21.6273 17.3378 22.429 16.9658 23.0456 16.4738C23.4156 16.1738 23.7363 15.8138 24.0323 15.3458L24.2543 15.0098L24.5873 15.3698C24.7476 15.5258 28.312 18.8258 28.3366 23.3978V23.8058L27.942 23.6978C27.4486 23.5538 26.943 23.4818 26.462 23.4818C23.2923 23.4818 20.7023 26.2538 20.7023 29.6738L20.7393 29.6978Z" fill="white"/>
<path d="M26.1517 2.91352C26.2627 2.81752 26.349 2.73352 26.4477 2.66152C26.7807 2.42152 27.1754 2.25352 27.5207 2.16952C27.7057 2.12152 27.8784 2.10952 28.051 2.12152C28.2237 2.12152 28.384 2.16952 28.5444 2.22952C28.9144 2.37352 29.2104 2.66152 29.4817 3.12952C29.753 3.59752 29.8517 4.00552 29.8024 4.40152C29.753 4.71352 29.605 4.98952 29.3584 5.24152C29.124 5.46952 28.791 5.64952 28.4704 5.73352C28.3347 5.76952 28.2114 5.78152 28.1127 5.78152H27.903L27.8167 5.58952C27.459 4.72552 26.904 3.96952 26.1887 3.35752L25.9297 3.14152L26.1764 2.91352H26.1517Z" fill="#CAEBDF"/>
<path d="M9.60053 5.59007L9.51419 5.78207H9.30453C9.19353 5.78207 9.08253 5.75807 8.93453 5.73407C8.61386 5.65007 8.28086 5.47007 8.04653 5.24207C7.78753 5.00207 7.65186 4.72607 7.60253 4.40207C7.54086 4.00607 7.65186 3.59807 7.92319 3.13007C8.19453 2.66207 8.49053 2.37407 8.86053 2.23007C9.02086 2.17007 9.18119 2.13407 9.35386 2.12207C9.51419 2.12207 9.69919 2.12207 9.88419 2.17007C10.2172 2.24207 10.6119 2.42207 10.9449 2.66207C11.0559 2.73407 11.1422 2.81807 11.2285 2.89007L11.4752 3.11807L11.2409 3.34607C10.5132 3.97007 9.97053 4.71407 9.61286 5.57807L9.60053 5.59007Z" fill="#CAEBDF"/>
<path d="M10.8942 34.2334C8.64955 34.2334 6.82422 32.1934 6.82422 29.6854C6.82422 27.1774 8.64955 25.1494 10.8942 25.1494C13.1389 25.1494 14.9519 27.1894 14.9519 29.6854C14.9519 32.1814 13.1266 34.2334 10.8942 34.2334Z" fill="#CAEBDF"/>
<path d="M30.5685 29.6854C30.5685 32.1934 28.7431 34.2334 26.5108 34.2334C24.2785 34.2334 22.4531 32.1934 22.4531 29.6854C22.4531 27.1774 24.2785 25.1494 26.5108 25.1494C28.7431 25.1494 30.5685 27.1894 30.5685 29.6854Z" fill="#CAEBDF"/>
</g>
<defs>
<clipPath id="clip0_17351_15583">
<rect width="37" height="36" fill="white"/>
</clipPath>
</defs>
</svg>
