<svg width="35" height="38" viewBox="0 0 35 38" fill="none" xmlns="http://www.w3.org/2000/svg">
<g clip-path="url(#clip0_17351_15605)">
<path d="M23.3317 7.25293H20.3789V10.1647H23.3317V7.25293Z" fill="#CAEBDF"/>
<path d="M34.7611 0.78418H13.3594V3.95243H28.475L32.9499 8.27018V27.4934H34.5973V3.95243H34.7611V0.78418Z" fill="#CAEBDF"/>
<path d="M8.00673 19.6416H1.07031V37.3069H8.00673V19.6416Z" fill="#CAEBDF"/>
<path d="M15.5521 33.0176H8.00391V37.3116H15.5521V33.0176Z" fill="#CAEBDF"/>
<path d="M10.5258 6.42676H8.34375V33.0173H10.5258V6.42676Z" fill="#CAEBDF"/>
<path d="M29.9644 30.8037H9.42969V32.5042H29.9644V30.8037Z" fill="#CAEBDF"/>
<path d="M6.40559 33.8295C6.40559 33.9673 6.34778 34.105 6.25144 34.2048C6.15029 34.3045 6.01541 34.3568 5.8709 34.3568H3.40462C3.11079 34.3568 2.86994 34.1193 2.86994 33.8295C2.86994 33.5398 3.11079 33.3023 3.40462 33.3023H5.87572C6.16956 33.3023 6.4104 33.5398 6.4104 33.8295H6.40559ZM35.5 0.52725V27.3078C35.5 27.4455 35.447 27.5833 35.3459 27.683C35.2447 27.7828 35.1098 27.835 34.9653 27.835H33.1493V30.5948C33.1493 30.8845 32.9085 31.122 32.6146 31.122H30.6782V33.0315C30.6782 33.1693 30.6204 33.3022 30.5241 33.402C30.4229 33.5018 30.2881 33.554 30.1435 33.554H16.184V37.468C16.184 37.7578 15.9432 37.9953 15.6493 37.9953H1.03468C0.740848 37.9953 0.5 37.7578 0.5 37.468V19.5178C0.5 19.228 0.740848 18.9905 1.03468 18.9905H7.80732V6.251C7.80732 6.11325 7.86512 5.9755 7.96146 5.87575C8.06262 5.776 8.19749 5.719 8.342 5.72375H10.2784V3.81425C10.2784 3.67175 10.3362 3.53875 10.4374 3.439C10.5385 3.33925 10.6734 3.287 10.8179 3.287H12.6339V0.52725C12.6339 0.2375 12.8748 0 13.1686 0H34.9701C35.1098 0 35.2495 0.057 35.3507 0.152C35.4518 0.25175 35.5048 0.38475 35.5048 0.52725H35.5ZM15.1146 33.5588H8.342C8.20231 33.5588 8.06744 33.5065 7.96146 33.4068C7.86031 33.307 7.80732 33.174 7.80732 33.0315V31.5258H3.40462C3.11079 31.5258 2.86994 31.2883 2.86994 30.9985C2.86994 30.7088 3.11079 30.4713 3.40462 30.4713H7.80732V28.6995H3.40462C3.11079 28.6995 2.86994 28.462 2.86994 28.1723C2.86994 27.8825 3.11079 27.645 3.40462 27.645H7.80732V25.8733H3.40462C3.11079 25.8733 2.86994 25.6358 2.86994 25.346C2.86994 25.0563 3.11079 24.8188 3.40462 24.8188H7.80732V23.047H3.40462C3.11079 23.047 2.86994 22.8095 2.86994 22.5198C2.86994 22.23 3.11079 21.9925 3.40462 21.9925H7.80732V20.0592H1.56936V36.955H15.1146V33.5683V33.5588ZM29.6089 31.122H10.8131C10.6686 31.122 10.5337 31.065 10.4326 30.97C10.3314 30.8703 10.2736 30.7373 10.2736 30.5948V6.77825H8.87187V32.5043H29.604V31.122H29.6089ZM32.08 8.82075H28.0723C27.9326 8.82075 27.7929 8.76375 27.6917 8.66875C27.5906 8.569 27.5376 8.436 27.5376 8.2935V4.3415H11.3526V30.0628H32.08V8.82075ZM28.6118 7.76625H31.3285L28.6118 5.08725V7.76625ZM34.4306 1.0545H13.6985V3.287H28.1541L28.1782 3.2965C28.1879 3.2965 28.1975 3.30125 28.2071 3.306H28.2312C28.2312 3.306 28.2505 3.3155 28.2553 3.32025L28.2794 3.32975C28.2794 3.32975 28.2986 3.33925 28.3035 3.33925L28.3276 3.34875L28.3709 3.3725C28.3709 3.3725 28.3902 3.382 28.395 3.3915L28.4143 3.40575C28.4143 3.40575 28.4383 3.4295 28.4528 3.439L32.9952 7.91825C32.9952 7.91825 33.0193 7.942 33.0289 7.95625C33.0385 7.9705 33.0385 7.9705 33.0434 7.97525C33.0482 7.98475 33.053 7.9895 33.0626 7.999L33.0867 8.04175C33.0867 8.04175 33.0963 8.056 33.0963 8.0655C33.0963 8.075 33.106 8.07975 33.106 8.08925C33.106 8.09875 33.1108 8.1035 33.1156 8.113C33.1204 8.1225 33.1204 8.132 33.1252 8.13675C33.1301 8.1415 33.1252 8.151 33.1301 8.1605C33.1301 8.17 33.1349 8.1795 33.1397 8.189C33.1445 8.1985 33.1397 8.208 33.1397 8.21275C33.1397 8.22225 33.1397 8.23175 33.1397 8.2365V26.7758H34.4162V1.0545H34.4306ZM19.604 10.2173V7.106C19.604 6.8115 19.8449 6.57875 20.1387 6.57875H23.2938C23.5877 6.57875 23.8285 6.81625 23.8285 7.106V10.2173C23.8285 10.355 23.7707 10.4928 23.6696 10.5925C23.5684 10.6923 23.4335 10.7445 23.289 10.7445H20.1339C19.9942 10.7445 19.8545 10.6875 19.7534 10.5925C19.6522 10.4928 19.5992 10.3598 19.5992 10.2173H19.604ZM20.6734 9.69H22.7591V7.63325H20.6734V9.69ZM16.1744 18.373V15.2808C16.1744 14.991 16.4152 14.7535 16.7091 14.7535H19.8449C19.9894 14.7535 20.1243 14.8105 20.2254 14.9103C20.3266 15.01 20.3844 15.143 20.3844 15.2855V18.3778C20.3844 18.5155 20.3266 18.6533 20.2254 18.753C20.1243 18.8528 19.9894 18.905 19.8449 18.905H16.7091C16.4152 18.905 16.1744 18.6675 16.1744 18.3778V18.373ZM17.2437 17.8458H19.3102V15.808H17.2437V17.8458ZM23.5877 14.7535H26.7235C26.8632 14.7535 27.0029 14.8105 27.104 14.9103C27.2052 15.01 27.2582 15.143 27.2582 15.2855V18.3778C27.2582 18.5155 27.2004 18.6533 27.104 18.753C27.0029 18.8528 26.868 18.905 26.7235 18.905H23.5877C23.4432 18.905 23.3083 18.848 23.2071 18.753C23.106 18.6533 23.053 18.5203 23.053 18.3778V15.2855C23.053 15.1478 23.1108 15.01 23.2071 14.9103C23.3083 14.8105 23.4432 14.7535 23.5877 14.7535ZM24.1223 17.8458H26.1888V15.808H24.1223V17.8458ZM16.9355 23.5363V26.6285C16.9355 26.771 16.8776 26.904 16.7813 27.0037C16.6802 27.1035 16.5453 27.1558 16.4008 27.1558H13.2649C13.1204 27.1558 12.9855 27.0988 12.8844 27.0037C12.7832 26.904 12.7254 26.771 12.7254 26.6285V23.5363C12.7254 23.2465 12.9663 23.009 13.2601 23.009H16.396C16.6898 23.009 16.9306 23.2465 16.9306 23.5363H16.9355ZM15.8661 24.0635H13.7996V26.1013H15.8661V24.0635ZM23.8189 23.5363V26.6285C23.8189 26.771 23.7611 26.904 23.6647 27.0037C23.5636 27.1035 23.4287 27.1558 23.2842 27.1558H20.1484C19.8545 27.1558 19.6137 26.9183 19.6137 26.6285V23.5363C19.6137 23.2465 19.8545 23.009 20.1484 23.009H23.2842C23.578 23.009 23.8189 23.2465 23.8189 23.5363ZM22.7447 24.0635H20.6782V26.1013H22.7447V24.0635ZM30.6975 23.5363V26.6285C30.6975 26.9183 30.4566 27.1558 30.1628 27.1558H27.027C26.8873 27.1558 26.7476 27.0988 26.6464 27.0037C26.5453 26.904 26.4875 26.771 26.4923 26.6285V23.5363C26.4923 23.2465 26.7331 23.009 27.027 23.009H30.1628C30.4566 23.009 30.6975 23.2465 30.6975 23.5363ZM29.6281 24.0635H27.5617V26.1013H29.6281V24.0635ZM18.2746 14.1408C18.5684 14.1408 18.8092 13.9033 18.8092 13.6135V13.0958H24.6185V13.6135C24.6185 13.9033 24.8593 14.1408 25.1532 14.1408C25.447 14.1408 25.6879 13.9033 25.6879 13.6135V12.5685C25.6879 12.2788 25.447 12.0413 25.1532 12.0413H22.2486V11.8133C22.2486 11.5235 22.0077 11.286 21.7139 11.286C21.42 11.286 21.1792 11.5235 21.1792 11.8133V12.0413H18.2746C17.9807 12.0413 17.7399 12.2788 17.7399 12.5685V13.6135C17.7399 13.9033 17.9807 14.1408 18.2746 14.1408ZM14.8353 22.401C15.1291 22.401 15.3699 22.1635 15.3699 21.8738V21.3513H21.1792V21.869C21.1792 22.1588 21.42 22.3963 21.7139 22.3963C22.0077 22.3963 22.2486 22.1588 22.2486 21.869V21.3513H28.0626V21.869C28.0626 22.1588 28.3035 22.3963 28.5973 22.3963C28.8911 22.3963 29.132 22.1588 29.132 21.869V20.824C29.132 20.6863 29.079 20.5485 28.9778 20.4488C28.8767 20.349 28.7418 20.292 28.5973 20.292H25.6927V20.064C25.6927 19.7743 25.4518 19.5368 25.158 19.5368C24.8642 19.5368 24.6233 19.7743 24.6233 20.064V20.292H18.8141V20.064C18.8141 19.7743 18.5732 19.5368 18.2794 19.5368C17.9855 19.5368 17.7447 19.7743 17.7447 20.064V20.292H14.8401C14.5462 20.292 14.3054 20.5295 14.3054 20.8193V21.8643C14.3054 22.002 14.3632 22.1398 14.4595 22.2395C14.5607 22.3393 14.6956 22.3963 14.8401 22.3963L14.8353 22.401Z" fill="#172851"/>
</g>
<defs>
<clipPath id="clip0_17351_15605">
<rect width="35" height="38" fill="white"/>
</clipPath>
</defs>
</svg>
