<svg width="40" height="45" viewBox="0 0 40 45" fill="none" xmlns="http://www.w3.org/2000/svg">
<g clip-path="url(#clip0_17351_15648)">
<path d="M23.0557 42.6511V38.765L19.6925 36.8174L16.3203 38.765V42.6511L19.6925 44.5987L23.0557 42.6511Z" fill="#CAEBDF"/>
<path d="M38.8799 14.8884V11.0023L35.5167 9.05469L32.1445 11.0023V14.8884L35.5167 16.836L38.8799 14.8884Z" fill="#CAEBDF"/>
<path d="M7.23148 14.8884V11.0023L3.8683 9.05469L0.496094 11.0023V14.8884L3.8683 16.836L7.23148 14.8884Z" fill="#CAEBDF"/>
<path d="M16.1849 6.51269L19.3497 8.27093C19.5661 8.38814 19.8186 8.38814 20.035 8.27093L23.1998 6.51269C23.4252 6.38646 23.5604 6.15203 23.5604 5.89957V2.3831C23.5604 2.13064 23.4252 1.89621 23.1998 1.76997L20.035 0.0117398C19.8186 -0.105476 19.5661 -0.105476 19.3497 0.0117398L16.1849 1.76997C15.9595 1.89621 15.8242 2.13064 15.8242 2.3831V5.89957C15.8242 6.15203 15.9595 6.38646 16.1849 6.51269ZM17.2308 2.79786L19.6923 1.42734L22.1539 2.79786V5.4848L19.6923 6.85532L17.2308 5.4848V2.79786Z" fill="#172851"/>
<path d="M23.1998 38.3325L20.035 36.5742C19.8186 36.457 19.5661 36.457 19.3497 36.5742L16.1849 38.3325C15.9595 38.4587 15.8242 38.6931 15.8242 38.9456V42.4621C15.8242 42.7145 15.9595 42.949 16.1849 43.0752L19.3497 44.8334C19.5661 44.9506 19.8186 44.9506 20.035 44.8334L23.1998 43.0752C23.4252 42.949 23.5604 42.7145 23.5604 42.4621V38.9456C23.5604 38.6931 23.4252 38.4587 23.1998 38.3325ZM22.1539 42.0563L19.6923 43.4268L17.2308 42.0563V39.3694L19.6923 37.9989L22.1539 39.3694V42.0563Z" fill="#172851"/>
<path d="M7.37556 29.1987L4.21074 27.4405C3.99435 27.3232 3.74188 27.3232 3.52548 27.4405L0.360663 29.1987C0.135249 29.3159 0 29.5503 0 29.8118V33.3283C0 33.5807 0.135249 33.8152 0.360663 33.9414L3.52548 35.6996C3.74188 35.8169 3.99435 35.8169 4.21074 35.6996L7.37556 33.9414C7.60098 33.8152 7.73623 33.5807 7.73623 33.3283V29.8118C7.73623 29.5593 7.60098 29.3249 7.37556 29.1987ZM6.32964 32.9135L3.86811 34.284L1.40659 32.9135V30.2266L3.86811 28.8561L6.32964 30.2266V32.9135Z" fill="#172851"/>
<path d="M39.024 29.1987L35.8592 27.4405C35.6428 27.3232 35.3903 27.3232 35.1739 27.4405L32.0091 29.1987C31.7837 29.3249 31.6484 29.5593 31.6484 29.8118V33.3283C31.6484 33.5807 31.7837 33.8152 32.0091 33.9414L35.1739 35.6996C35.3903 35.8169 35.6428 35.8169 35.8592 35.6996L39.024 33.9414C39.2494 33.8152 39.3847 33.5807 39.3847 33.3283V29.8118C39.3847 29.5593 39.2494 29.3249 39.024 29.1987ZM37.9781 32.9135L35.5166 34.284L33.055 32.9135V30.2266L35.5166 28.8561L37.9781 30.2266V32.9135Z" fill="#172851"/>
<path d="M15.0157 7.35968C14.6821 7.00804 14.4747 6.55721 14.4296 6.07031L8.43359 9.5958C8.79426 9.92039 9.0377 10.3532 9.10984 10.8311L15.0067 7.35968H15.0157Z" fill="#172851"/>
<path d="M0.360663 15.3038L3.52548 17.0621C3.74188 17.1793 3.99435 17.1793 4.21074 17.0621L7.37556 15.3038C7.60098 15.1776 7.73623 14.9432 7.73623 14.6907V11.1742C7.73623 10.9218 7.60098 10.6873 7.37556 10.5611L4.21074 8.80288C3.99435 8.68566 3.74188 8.68566 3.52548 8.80288L0.360663 10.5611C0.135249 10.6783 0 10.9218 0 11.1742V14.6907C0 14.9432 0.135249 15.1776 0.360663 15.3038ZM1.40659 11.589L3.86811 10.2185L6.32964 11.589V14.2759L3.86811 15.6465L1.40659 14.2759V11.589Z" fill="#172851"/>
<path d="M39.024 10.561L35.8592 8.80276C35.6428 8.68554 35.3903 8.68554 35.1739 8.80276L32.0091 10.561C31.7837 10.6872 31.6484 10.9217 31.6484 11.1741V14.6906C31.6484 14.943 31.7837 15.1775 32.0091 15.3037L35.1739 17.0619C35.3903 17.1792 35.6428 17.1792 35.8592 17.0619L39.024 15.3037C39.2494 15.1775 39.3847 14.943 39.3847 14.6906V11.1741C39.3847 10.9217 39.2494 10.6872 39.024 10.561ZM37.9781 14.2758L35.5166 15.6463L33.055 14.2758V11.5889L35.5166 10.2184L37.9781 11.5889V14.2758Z" fill="#172851"/>
<path d="M26.0226 25.591V19.2614C26.0226 19.0089 25.8873 18.7745 25.6619 18.6482L20.0356 15.4834C19.8192 15.3662 19.5577 15.3662 19.3503 15.4834L13.7239 18.6482C13.4985 18.7745 13.3633 19.0089 13.3633 19.2614V25.591C13.3633 25.8435 13.4985 26.0779 13.7239 26.2041L19.3503 29.369C19.5667 29.4862 19.8282 29.4862 20.0356 29.369L25.6619 26.2041C25.8873 26.0779 26.0226 25.8435 26.0226 25.591ZM19.6929 27.9443L14.7699 25.1762V19.6671L19.6929 16.899L24.616 19.6671V25.1762L19.6929 27.9443Z" fill="#172851"/>
<path d="M30.9454 9.60458L24.9494 6.0791C24.9133 6.566 24.7059 7.01683 24.3633 7.36847L30.2601 10.8399C30.3413 10.362 30.5757 9.92918 30.9364 9.60458H30.9454Z" fill="#172851"/>
<path d="M36.2191 26.0695V18.4325C35.7683 18.5948 35.2633 18.5948 34.8125 18.4325V26.0695C35.2633 25.9072 35.7683 25.9072 36.2191 26.0695Z" fill="#172851"/>
<path d="M30.3401 33.968L24.3711 37.4845C24.7047 37.8361 24.9121 38.2869 24.9572 38.7738L31.2147 35.0861C30.8089 34.8246 30.5024 34.4278 30.3491 33.959L30.3401 33.968Z" fill="#172851"/>
<path d="M8.16797 35.0945L14.4255 38.7823C14.4615 38.2954 14.6689 37.8446 15.0116 37.4929L9.04258 33.9764C8.88929 34.4363 8.59175 34.833 8.17698 35.1035L8.16797 35.0945Z" fill="#172851"/>
<path d="M3.16797 18.4326V26.0697C3.6188 25.9074 4.12373 25.9074 4.57456 26.0697V18.4326C4.12373 18.5949 3.6188 18.5949 3.16797 18.4326Z" fill="#172851"/>
<path d="M20.3949 14.1138V9.6416C19.944 9.8039 19.4391 9.8039 18.9883 9.6416V14.1138C19.4391 13.9515 19.944 13.9515 20.3949 14.1138Z" fill="#172851"/>
<path d="M18.9883 30.7393V35.2115C19.4391 35.0492 19.944 35.0492 20.3949 35.2115V30.7393C19.944 30.9016 19.4391 30.9016 18.9883 30.7393Z" fill="#172851"/>
<path d="M8.53906 28.3325C8.88169 28.6842 9.08907 29.135 9.13416 29.6219L12.9031 27.3497C12.4973 27.0792 12.1998 26.6825 12.0555 26.2227L8.53906 28.3416V28.3325Z" fill="#172851"/>
<path d="M26.4844 17.5036C26.8901 17.7741 27.1877 18.1708 27.3319 18.6306L31.0828 16.3675C30.6951 16.0789 30.4246 15.6642 30.3074 15.1953L26.4844 17.5036Z" fill="#172851"/>
<path d="M12.9735 17.4578L9.09633 15.1045C8.99714 15.5734 8.74468 16.0062 8.375 16.3127L12.0808 18.5669C12.2431 18.107 12.5587 17.7193 12.9735 17.4668V17.4578Z" fill="#172851"/>
<path d="M30.8538 28.3147L27.3373 26.1777C27.2021 26.6466 26.9045 27.0433 26.5078 27.3228L30.2497 29.595C30.2948 29.1081 30.5112 28.6573 30.8538 28.3147Z" fill="#172851"/>
</g>
<defs>
<clipPath id="clip0_17351_15648">
<rect width="43.68" height="49.92" fill="white" transform="translate(0 -0.0791016)"/>
</clipPath>
</defs>
</svg>
