<svg width="37" height="36" viewBox="0 0 37 36" fill="none" xmlns="http://www.w3.org/2000/svg">
<path d="M36.2505 21.3511C36.0162 20.3191 35.3995 19.2751 34.3512 18.1711C32.2669 15.9751 29.2945 14.3551 26.3839 13.8511C26.3345 13.8511 25.8165 13.8031 25.7549 13.8031C25.6562 13.8031 25.3479 13.8031 25.1259 13.8271L25.4589 13.4671C25.8905 13.0111 26.2852 12.4471 26.6305 11.7871C27.1855 10.7671 27.8145 9.14712 27.7282 7.23912V6.97512L27.9872 6.92712C28.1105 6.90312 28.2215 6.89112 28.3449 6.85512C28.9739 6.69912 29.5412 6.37512 29.9852 5.94312C30.4909 5.45112 30.8239 4.82712 30.9225 4.16712C31.0335 3.42312 30.8485 2.61912 30.4045 1.85112C29.9729 1.09512 29.3439 0.519118 28.6409 0.231118C27.8639 -0.0808819 27.0992 -0.020882 26.6059 0.087118C26.0262 0.219118 25.4712 0.471118 24.9285 0.831118C24.6202 1.04712 24.3365 1.29912 24.0775 1.62312L23.9295 1.80312L23.7199 1.70712C22.2275 1.07112 20.3652 0.747118 18.1575 0.747118C15.9499 0.747118 14.0875 1.07112 12.6075 1.70712L12.3979 1.80312L12.2499 1.62312C11.9909 1.31112 11.7072 1.04712 11.3989 0.831118C10.8685 0.459118 10.3012 0.207118 9.72153 0.087118C9.38853 0.015118 9.05553 -0.00888196 8.72253 0.00311804C8.36486 0.027118 8.0072 0.0991181 7.68653 0.231118C6.98353 0.519118 6.36686 1.07112 5.92286 1.85112C5.47886 2.61912 5.30619 3.42312 5.40486 4.16712C5.50353 4.82712 5.82419 5.45112 6.3422 5.94312C6.79853 6.37512 7.36586 6.68712 7.98253 6.85512C8.09353 6.87912 8.21686 6.90312 8.34019 6.92712L8.61153 6.97512V7.23912C8.50053 9.14712 9.14186 10.7671 9.69686 11.7871C9.99286 12.3271 10.3382 12.8311 10.7205 13.2871L10.9055 13.5031L10.6959 13.6951C10.6959 13.6951 10.6589 13.7311 10.6342 13.7551C10.4122 13.7791 10.0915 13.8271 10.0792 13.8391C10.0299 13.8391 9.98053 13.8391 9.9312 13.8391C7.02053 14.3431 4.03586 15.9631 1.96386 18.1591C0.927862 19.2631 0.311195 20.2951 0.0768616 21.3391C-0.182138 22.5151 0.224862 23.7271 1.1252 24.4351C1.96386 25.1071 2.99986 25.3831 3.96186 25.2271C4.65253 25.1071 5.29386 24.7951 5.97219 24.2551L6.40386 23.9071L6.49019 24.5791L6.39153 24.7351C5.25686 25.8991 4.6032 27.5311 4.6032 29.1991C4.6032 32.6191 7.1932 35.3911 10.3629 35.3911C12.1759 35.3911 13.8409 34.4791 14.9509 32.8951L15.0865 32.7031L15.3209 32.7871C16.5912 33.2551 17.7629 33.1351 17.8985 33.1231C18.1205 33.1351 19.5142 33.2911 20.8955 32.6551L21.1422 32.5471L21.2902 32.7751C22.3879 34.4551 24.1022 35.4151 25.9892 35.4151C29.1712 35.4151 31.7489 32.6431 31.7489 29.2231C31.7489 27.6391 31.1815 26.1271 30.1455 24.9511L28.6902 23.3071L30.5525 24.5071C31.1569 24.9031 31.7489 25.1431 32.3532 25.2391C33.3522 25.4071 34.4005 25.1191 35.2392 24.4591C36.1395 23.7511 36.5465 22.5271 36.2875 21.3631L36.2505 21.3511ZM25.6069 2.45112C25.7179 2.35512 25.8042 2.27112 25.9029 2.19912C26.2359 1.95912 26.6305 1.79112 26.9759 1.70712C27.1609 1.65912 27.3335 1.64712 27.5062 1.65912C27.6789 1.65912 27.8392 1.70712 27.9995 1.76712C28.3695 1.91112 28.6655 2.19912 28.9369 2.66712C29.2082 3.13512 29.3069 3.54312 29.2575 3.93912C29.2082 4.25112 29.0602 4.52712 28.8135 4.77912C28.5792 5.00712 28.2462 5.18712 27.9255 5.27112C27.7899 5.30712 27.6665 5.31912 27.5679 5.31912H27.3582L27.2719 5.12712C26.9142 4.26312 26.3592 3.50712 25.6439 2.89512L25.3849 2.67912L25.6315 2.45112H25.6069ZM9.05553 5.12712L8.9692 5.31912H8.75953C8.64853 5.31912 8.53753 5.29512 8.38953 5.27112C8.06886 5.18712 7.73586 5.00712 7.50153 4.77912C7.24253 4.53912 7.10686 4.26312 7.05753 3.93912C6.99586 3.54312 7.10686 3.13512 7.3782 2.66712C7.64953 2.19912 7.94553 1.91112 8.31553 1.76712C8.47586 1.70712 8.6362 1.67112 8.80886 1.65912C8.9692 1.65912 9.15419 1.65912 9.33919 1.70712C9.67219 1.77912 10.0669 1.95912 10.3999 2.19912C10.5109 2.27112 10.5972 2.35512 10.6835 2.42712L10.9302 2.65512L10.6959 2.88312C9.96819 3.50712 9.42553 4.25112 9.06786 5.11512L9.05553 5.12712ZM10.2765 7.28712C10.3629 5.88312 10.9179 4.80312 11.9909 3.97512C13.3229 2.94312 15.3949 2.42712 18.1452 2.42712C20.8955 2.42712 22.9799 2.95512 24.3119 3.97512C25.3849 4.80312 25.9522 5.88312 26.0262 7.28712C26.0879 8.47512 25.7672 9.84312 25.1259 11.0191C24.9779 11.3071 24.7929 11.5831 24.5462 11.8831L24.1762 12.3631L24.0035 11.7871C23.7569 10.9711 23.2759 10.2511 22.6099 9.71112C21.5122 8.83512 19.9705 8.37912 18.1452 8.36712C16.3075 8.36712 14.7659 8.83512 13.6805 9.71112C13.0145 10.2511 12.5335 10.9591 12.2869 11.7871L12.1142 12.3631L11.7442 11.8831C11.5099 11.5831 11.3249 11.2951 11.1769 11.0191C10.5479 9.85512 10.2149 8.46312 10.2765 7.28712ZM17.5285 11.5471C17.6765 11.7151 17.8862 11.7991 18.1205 11.8111C18.6015 11.8351 18.9839 11.4751 18.9962 11.0191V10.0711L19.3662 10.1311C20.2542 10.2751 21.0065 10.5751 21.5492 11.0071C22.1905 11.5231 22.5112 12.1471 22.4989 12.8671C22.4989 13.3711 22.3139 14.1151 21.4752 14.7751C20.9202 15.2191 19.9089 15.7471 18.1945 15.7711C16.4062 15.7471 15.3825 15.2191 14.8275 14.7751C14.0012 14.1151 13.8039 13.3711 13.8039 12.8671C13.8039 12.1591 14.1245 11.5111 14.7659 11.0071C15.3085 10.5751 16.0732 10.2751 16.9612 10.1311L17.3312 10.0711V10.9591C17.3065 11.1871 17.3805 11.3911 17.5409 11.5591L17.5285 11.5471ZM5.03486 22.8631C4.55386 23.2711 4.06053 23.5351 3.62886 23.6191C3.51786 23.6431 3.40686 23.6551 3.28353 23.6551C2.9382 23.6551 2.6052 23.5471 2.14886 23.1871C1.58153 22.7431 1.54453 22.3591 1.69253 21.7231C1.85286 21.0271 2.40786 20.1271 3.17253 19.3111C4.34419 18.0631 6.12019 16.8871 7.92086 16.1791L8.79653 15.8311L8.30319 16.6111C7.39053 18.0511 6.7862 19.5511 6.50253 21.0631L6.46553 21.1591C6.23119 21.5431 5.72553 22.2631 5.02253 22.8751L5.03486 22.8631ZM10.3505 33.7711C8.10586 33.7711 6.28053 31.7311 6.28053 29.2231C6.28053 26.7151 8.10586 24.6871 10.3505 24.6871C12.5952 24.6871 14.4082 26.7271 14.4082 29.2231C14.4082 31.7191 12.5829 33.7711 10.3505 33.7711ZM20.2049 29.2231C20.2049 29.7271 20.2665 30.2551 20.4022 30.7831L20.4639 31.0231L20.2295 31.1191C19.4279 31.4791 18.2192 31.4911 18.0219 31.4911H17.9972C17.9232 31.4911 17.8862 31.4911 17.8369 31.4911C17.7752 31.4911 16.8749 31.4911 16.0855 31.2871L15.7895 31.2031L15.8635 30.9151C16.0115 30.3511 16.0979 29.7631 16.0979 29.1991C16.0979 25.7911 13.5202 23.0071 10.3505 23.0071C9.7092 23.0071 9.08019 23.1271 8.46353 23.3551L8.0442 23.5111V23.0791C7.99486 18.4351 11.6332 15.0631 11.7812 14.9311C11.8675 14.8591 12.1882 14.4511 12.1882 14.4511L12.6075 14.6671L12.6569 14.7511C12.9529 15.2551 13.3105 15.6751 13.7422 16.0231C14.3589 16.5151 15.1605 16.8871 16.1225 17.1271L16.5665 17.2351L13.9889 20.5831C13.8285 20.7631 13.7422 20.9791 13.7669 21.1951C13.7915 21.4111 13.8779 21.6151 14.0505 21.7591C14.4082 22.0591 14.9385 22.0231 15.2469 21.6871C15.2715 21.6511 15.3085 21.6151 15.3209 21.5791L18.1329 17.9311L20.9202 21.5551C21.0559 21.7591 21.2409 21.8791 21.4629 21.9271C21.6972 21.9751 21.9069 21.9271 22.1042 21.8071C22.2892 21.6871 22.4249 21.5071 22.4742 21.2911C22.5235 21.0751 22.4742 20.8591 22.3509 20.6671C22.3262 20.6311 22.3015 20.6071 22.2769 20.5711L19.6869 17.2111L20.1309 17.1031C21.0929 16.8631 21.8945 16.4911 22.5112 15.9991C22.8812 15.6991 23.2019 15.3391 23.4979 14.8711L23.7199 14.5351L24.0529 14.8951C24.2132 15.0511 27.7775 18.3511 27.8022 22.9231V23.3311L27.4075 23.2231C26.9142 23.0791 26.4085 23.0071 25.9275 23.0071C22.7579 23.0071 20.1679 25.7791 20.1679 29.1991L20.2049 29.2231ZM30.0222 29.2231C30.0222 31.7311 28.1969 33.7711 25.9645 33.7711C23.7322 33.7711 21.9069 31.7311 21.9069 29.2231C21.9069 26.7151 23.7322 24.6871 25.9645 24.6871C28.1969 24.6871 30.0222 26.7271 30.0222 29.2231ZM34.1415 23.1751C33.6852 23.5351 33.3399 23.6431 32.9699 23.6431C32.8465 23.6431 32.7232 23.6311 32.5999 23.6071C32.1312 23.5231 31.5639 23.2591 31.0212 22.8271C30.1825 22.1791 29.6029 21.3871 29.3932 21.0871L29.3439 20.9791C29.0479 19.4191 28.3942 17.8711 27.4199 16.3831L26.9389 15.6391L27.7899 15.9391C29.8002 16.6351 31.7859 17.8831 33.1055 19.2871C33.8825 20.1151 34.4375 21.0151 34.5979 21.6991C34.7459 22.3351 34.7089 22.7191 34.1415 23.1631V23.1751Z" fill="#172851"/>
</svg>
