<svg width="49" height="31" viewBox="0 0 49 31" fill="none" xmlns="http://www.w3.org/2000/svg">
<g clip-path="url(#clip0_17351_15625)">
<path d="M21.4206 7.86472V2.52344L14.7891 7.86472C14.7891 7.86472 21.7333 7.55164 21.4206 7.86472Z" fill="#CAEBDF"/>
<path d="M7.38947 2.20129H0V8.46283H7.38947V2.20129Z" fill="#CAEBDF"/>
<path d="M7.38947 23.7275H0V29.9891H7.38947V23.7275Z" fill="#CAEBDF"/>
<path d="M48.5535 23.7275H41.1641V29.9891H48.5535V23.7275Z" fill="#CAEBDF"/>
<path d="M48.5535 2.20117H41.1641V8.46271H48.5535V2.20117Z" fill="#CAEBDF"/>
<path d="M29.2358 11.1759C29.5484 11.1759 29.8042 11.4321 29.8042 11.7452C29.8042 12.0582 29.5484 12.3144 29.2358 12.3144H19.3074C18.9947 12.3144 18.7389 12.0582 18.7389 11.7452C18.7389 11.4321 18.9947 11.1759 19.3074 11.1759H29.2358ZM29.2358 15.3408H19.3074C18.9947 15.3408 18.7389 15.597 18.7389 15.91C18.7389 16.2231 18.9947 16.4793 19.3074 16.4793H29.2358C29.5484 16.4793 29.8042 16.2231 29.8042 15.91C29.8042 15.597 29.5484 15.3408 29.2358 15.3408ZM29.2358 19.4962H19.3074C18.9947 19.4962 18.7389 19.7523 18.7389 20.0654C18.7389 20.3785 18.9947 20.6347 19.3074 20.6347H29.2358C29.5484 20.6347 29.8042 20.3785 29.8042 20.0654C29.8042 19.7523 29.5484 19.4962 29.2358 19.4962ZM29.2358 23.6421H19.3074C18.9947 23.6421 18.7389 23.8982 18.7389 24.2113C18.7389 24.5244 18.9947 24.7806 19.3074 24.7806H29.2358C29.5484 24.7806 29.8042 24.5244 29.8042 24.2113C29.8042 23.8982 29.5484 23.6421 29.2358 23.6421ZM37.3358 26.289H39.9411C40.2537 26.289 40.5095 26.5452 40.5095 26.8582C40.5095 27.1713 40.2537 27.4275 39.9411 27.4275H36.7674C36.4547 27.4275 36.1989 27.1713 36.1989 26.8582V17.5039H34.5032V28.2718C34.4937 28.5849 34.2474 28.8411 33.9253 28.8411L14.6179 28.9359C14.4663 28.9359 14.3242 28.879 14.22 28.7747C14.1158 28.6703 14.0589 28.528 14.0589 28.3667V17.5039H12.3821V26.8582C12.3821 27.1713 12.1263 27.4275 11.8137 27.4275H8.64C8.32737 27.4275 8.07158 27.1713 8.07158 26.8582C8.07158 26.5452 8.32737 26.289 8.64 26.289H11.2453V5.91055H8.64C8.32737 5.91055 8.07158 5.6544 8.07158 5.34132C8.07158 5.02825 8.32737 4.77209 8.64 4.77209H11.8137C12.1263 4.77209 12.3821 5.02825 12.3821 5.34132V16.3749H14.0589V7.60876C14.0589 7.54235 14.0779 7.46645 14.0968 7.40953C14.0968 7.40004 14.0968 7.39055 14.1063 7.38107C14.1347 7.32414 14.1726 7.26722 14.2105 7.22927L14.2389 7.20081L14.2768 7.16286L21.3158 1.77414C21.3158 1.77414 21.3726 1.74568 21.3916 1.73619C21.4105 1.72671 21.4295 1.70773 21.4579 1.70773C21.5242 1.67927 21.5905 1.66978 21.6568 1.66978H33.9632C34.1147 1.66978 34.2568 1.72671 34.3611 1.83107C34.4653 1.93543 34.5221 2.07773 34.5221 2.23902L34.5032 16.3939H36.1989V5.33184C36.1989 5.01876 36.4547 4.76261 36.7674 4.76261H39.9411C40.2537 4.76261 40.5095 5.01876 40.5095 5.33184C40.5095 5.64491 40.2537 5.90107 39.9411 5.90107H37.3263V26.289H37.3358ZM16.2853 7.03004H21.0789V3.3585L16.2853 7.03004ZM33.3758 2.7703H22.2063V7.58978C22.2063 7.90286 21.9505 8.15902 21.6379 8.15902H15.1768V27.788L33.3568 27.6931L33.3853 2.76081L33.3758 2.7703ZM48.5526 23.7275V29.989C48.5526 30.3021 48.2968 30.5582 47.9842 30.5582H41.7411C41.4284 30.5582 41.1726 30.3021 41.1726 29.989V23.7275C41.1726 23.4144 41.4284 23.1582 41.7411 23.1582H47.9937C48.3063 23.1582 48.5621 23.4144 48.5621 23.7275H48.5526ZM47.4158 24.2967H42.3V29.4198H47.4158V24.2967ZM48.5526 2.20107V8.4626C48.5526 8.77568 48.2968 9.03184 47.9842 9.03184H41.7411C41.4284 9.03184 41.1726 8.77568 41.1726 8.4626V2.20107C41.1726 1.88799 41.4284 1.63184 41.7411 1.63184H47.9937C48.3063 1.63184 48.5621 1.88799 48.5621 2.20107H48.5526ZM47.4158 2.77978H42.3V7.90286H47.4158V2.77978ZM43.4274 25.8621H46.2789C46.5916 25.8621 46.8474 25.6059 46.8474 25.2929C46.8474 24.9798 46.5916 24.7236 46.2789 24.7236H43.4274C43.1147 24.7236 42.859 24.9798 42.859 25.2929C42.859 25.6059 43.1147 25.8621 43.4274 25.8621ZM43.4274 4.33568H46.2789C46.5916 4.33568 46.8474 4.07953 46.8474 3.76645C46.8474 3.45337 46.5916 3.19722 46.2789 3.19722H43.4274C43.1147 3.19722 42.859 3.45337 42.859 3.76645C42.859 4.07953 43.1147 4.33568 43.4274 4.33568ZM7.38947 23.7275V29.989C7.38947 30.3021 7.13368 30.5582 6.82105 30.5582H0.568421C0.255789 30.5582 0 30.3021 0 29.989V23.7275C0 23.4144 0.255789 23.1582 0.568421 23.1582H6.82105C7.13368 23.1582 7.38947 23.4144 7.38947 23.7275ZM6.25263 24.2967H1.13684V29.4198H6.25263V24.2967ZM7.38947 2.20107V8.4626C7.38947 8.77568 7.13368 9.03184 6.82105 9.03184H0.568421C0.255789 9.03184 0 8.77568 0 8.4626V2.20107C0 1.88799 0.255789 1.63184 0.568421 1.63184H6.82105C7.13368 1.63184 7.38947 1.88799 7.38947 2.20107ZM6.25263 2.77978H1.13684V7.90286H6.25263V2.77978ZM2.27368 25.8621H5.12526C5.43789 25.8621 5.69368 25.6059 5.69368 25.2929C5.69368 24.9798 5.43789 24.7236 5.12526 24.7236H2.27368C1.96105 24.7236 1.70526 24.9798 1.70526 25.2929C1.70526 25.6059 1.96105 25.8621 2.27368 25.8621ZM2.27368 4.33568H5.12526C5.43789 4.33568 5.69368 4.07953 5.69368 3.76645C5.69368 3.45337 5.43789 3.19722 5.12526 3.19722H2.27368C1.96105 3.19722 1.70526 3.45337 1.70526 3.76645C1.70526 4.07953 1.96105 4.33568 2.27368 4.33568Z" fill="#172851"/>
</g>
<defs>
<clipPath id="clip0_17351_15625">
<rect width="48.5526" height="30.5677" fill="white"/>
</clipPath>
</defs>
</svg>
